<svg xmlns="http://www.w3.org/2000/svg" width="249" height="70"><g fill="none" fill-rule="evenodd"><path fill="#3E3935" d="M248.126 44.74l.225-.594a4.49 4.49 0 0 0-1.555-.303c-.765 0-1.392.213-1.872.64-.488.413-.728.967-.728 1.637 0 .616.204 1.123.61 1.526.253.257.763.558 1.538.927.695.333 1.18.613 1.455.862.293.26.438.638.438 1.116 0 .507-.178.917-.534 1.24-.363.32-.824.481-1.392.481-.552 0-1.167-.194-1.854-.563l-.26.599c.758.382 1.458.571 2.114.571.772 0 1.42-.232 1.926-.687a2.195 2.195 0 0 0 .773-1.72c0-.68-.252-1.23-.76-1.645-.282-.24-.812-.547-1.6-.903-.686-.31-1.138-.583-1.345-.812a1.47 1.47 0 0 1-.399-1.018c0-.487.18-.892.54-1.198.354-.31.821-.46 1.404-.46.402 0 .832.099 1.276.304zm-5.385 8.01h.752l-2.604-8.79h-.779l-2.61 8.79h.761l.964-3.444h2.546l.97 3.445zm-1.135-3.967h-2.21l1.089-3.986 1.121 3.986zm-5.512 2.918c.503-.697.75-1.817.75-3.342 0-1.52-.238-2.634-.735-3.338-.495-.708-1.271-1.061-2.336-1.061h-2.048v8.79h1.957c1.1 0 1.906-.357 2.412-1.05zm-.047-3.316c0 1.392-.194 2.376-.576 2.964-.384.581-1.027.863-1.924.863h-1.12V44.5h1.227c.835 0 1.444.308 1.817.927.382.615.576 1.603.576 2.958zm-5.997 4.366h.746l-2.605-8.791h-.78l-2.61 8.79h.76l.97-3.444h2.542l.977 3.445zm-1.136-3.968h-2.216l1.09-3.986 1.126 3.986zm-2.87-17.6c.05-.495.07-1.002.07-1.505 0-2.466-.521-4.351-1.571-5.653-1.052-1.303-2.574-1.959-4.57-1.959-2.069 0-3.684.676-4.844 2.022-1.155 1.338-1.733 3.207-1.733 5.59 0 2.561.655 4.547 1.97 5.942 1.307 1.387 3.173 2.092 5.594 2.092 1.615 0 3.187-.265 4.71-.79l-.637-2.685c-1.228.423-2.299.631-3.193.631-2.552 0-3.972-1.226-4.26-3.685h8.464zm-3.513-2.384h-5.333c.029-2.678.932-4.008 2.712-4.008 1.753 0 2.62 1.295 2.62 3.883v.125zm-6.276 23.5l-3.168-.175V43.96h-.706v8.79h3.874v-.452zm-5.546.452h.744l-2.603-8.791h-.778l-2.615 8.79h.767l.964-3.444h2.54l.98 3.445zm-1.14-3.968h-2.215l1.094-3.986 1.121 3.986zm-2.948-11.39h3.702V16.001l-3.796.37v6.902c-1.062-.777-2.188-1.177-3.38-1.177-1.722 0-3.104.73-4.158 2.197-1.043 1.464-1.574 3.385-1.574 5.768 0 2.328.511 4.2 1.54 5.611 1.02 1.404 2.379 2.112 4.067 2.112 1.08 0 2.277-.5 3.6-1.491v1.1zm-.094-3.59c-.811.482-1.508.72-2.08.72-1.974 0-2.954-1.472-2.954-4.426 0-3.098.98-4.65 2.953-4.65.61 0 1.306.245 2.08.728v7.628zm-13.758 18.948h4.194v-.47l-3.49-.154v-3.666h3.138v-.522h-3.138v-3.352l3.413-.137v-.49h-4.117v8.79zm-1.751-15.358h3.8V22.444h-3.8v11.36c-.801.561-1.622.848-2.47.848-1.486 0-2.235-.82-2.235-2.44V22.065l-3.801.4V33.26c0 2.995 1.5 4.494 4.496 4.494 1.358 0 2.691-.413 4.01-1.238v.877zm-3.723-16.97l4.747-3.208-2.179-2.05L186 19.24l1.295 1.182zm-3.894 23.42c-.765 0-1.39.213-1.87.64-.49.413-.728.967-.728 1.637 0 .616.201 1.123.608 1.526.258.257.77.558 1.542.927.69.333 1.174.613 1.45.862.295.26.443.638.443 1.116 0 .507-.18.917-.537 1.24-.358.32-.827.481-1.395.481-.549 0-1.162-.194-1.846-.563l-.265.599c.756.382 1.466.571 2.11.571.786 0 1.427-.232 1.935-.687.513-.454.767-1.029.767-1.72 0-.68-.254-1.23-.754-1.645-.283-.24-.824-.547-1.608-.903-.684-.31-1.13-.583-1.345-.812a1.5 1.5 0 0 1-.39-1.018c0-.487.175-.892.53-1.198.363-.31.833-.46 1.403-.46.409 0 .835.099 1.281.304l.22-.594a4.43 4.43 0 0 0-1.551-.303zm-7.796 8.908h4.201v-.47l-3.495-.154v-3.666h3.137v-.522h-3.137v-3.352l3.414-.137v-.49h-4.12v8.79zm-.68-15.358h3.568v-10.52c0-.916-.06-1.587-.171-2.005-.173-.651-.54-1.201-1.1-1.644-.978-.767-2.407-1.158-4.292-1.158-1.75 0-3.614.301-5.597.922l.878 2.772a19.09 19.09 0 0 1 1.234-.402c.981-.274 1.849-.417 2.622-.417 1.504 0 2.367.462 2.595 1.386.04.297.062.607.062.896v1.19a12.708 12.708 0 0 0-3.318-.462c-1.673 0-3.02.462-4.022 1.37-1.001.92-1.506 2.143-1.506 3.678 0 1.431.44 2.592 1.315 3.461.87.884 2.024 1.324 3.456 1.324 1.45 0 2.808-.56 4.075-1.682l.202 1.291zm-.201-3.285c-.829.552-1.633.82-2.42.82-.733 0-1.326-.2-1.772-.602-.444-.402-.669-.925-.669-1.576 0-.768.291-1.398.877-1.865.59-.463 1.373-.69 2.346-.69.39 0 .936.047 1.638.148v3.765zm-5.374 15.327c.303.26.445.638.445 1.116 0 .507-.18.917-.538 1.24-.361.32-.822.481-1.39.481-.555 0-1.17-.194-1.852-.563l-.267.599c.765.382 1.471.571 2.12.571.777 0 1.415-.232 1.927-.687.514-.454.766-1.029.766-1.72 0-.68-.249-1.23-.753-1.645-.28-.24-.816-.547-1.605-.903-.684-.31-1.132-.583-1.347-.812a1.484 1.484 0 0 1-.389-1.018c0-.487.173-.892.53-1.198.36-.31.826-.46 1.404-.46.407 0 .834.099 1.28.304l.224-.594c-.522-.193-1.038-.303-1.56-.303-.761 0-1.386.213-1.871.64-.479.413-.726.967-.726 1.637 0 .616.21 1.123.61 1.526.257.257.765.558 1.542.927.692.333 1.178.613 1.45.862zm-5.05 3.316h.75l-2.607-8.791h-.777l-2.612 8.79h.768l.965-3.444h2.538l.975 3.445zm-1.14-3.968h-2.208l1.095-3.986 1.112 3.986zm-7.05-21.882a1.01 1.01 0 0 1-.211-.658c0-.916.752-1.367 2.263-1.367 1.134 0 2.502.285 4.11.853l.83-2.85c-1.86-.58-3.505-.868-4.94-.868-1.842 0-3.302.405-4.397 1.226-1.088.819-1.64 1.913-1.64 3.278 0 1.179.402 2.156 1.21 2.914.605.583 1.532 1.114 2.775 1.605 1.135.455 1.925.82 2.379 1.085.565.333.85.732.85 1.173 0 .969-.92 1.448-2.748 1.448-.824 0-1.73-.14-2.717-.414a74.027 74.027 0 0 1-1.02-.366l-.848 2.963c.494.164.855.284 1.094.353 1.387.377 2.755.568 4.093.568 1.911 0 3.419-.428 4.517-1.296 1.091-.864 1.643-2.046 1.643-3.549 0-.94-.241-1.712-.71-2.323-.477-.615-1.283-1.162-2.424-1.655l-1.388-.608-1.042-.462c-.866-.407-1.428-.747-1.679-1.05zm-4.773 25.848h.697V43.96h-.697v8.79zm-2.357-1.048c.498-.697.757-1.817.757-3.342 0-1.52-.249-2.634-.739-3.338-.496-.708-1.28-1.061-2.338-1.061h-2.052v8.79h1.956c1.107 0 1.908-.357 2.416-1.05zm-.05-3.316c0 1.392-.19 2.376-.572 2.964-.385.581-1.029.863-1.934.863h-1.113V44.5h1.235c.826 0 1.436.308 1.814.927.38.615.57 1.603.57 2.958zm-2.488-10.992h2.567v-10.58c0-1.595-.37-2.709-1.111-3.319-.878-.749-2.172-1.118-3.894-1.118-1.244 0-2.514.16-3.797.483-.433.1-.945.241-1.541.414l.693 2.142c1.617-.591 2.961-.897 4.047-.897 1.643 0 2.589.547 2.821 1.625.046.2.064.53.064 1.004v1.467c-1.34-.321-2.481-.482-3.425-.482-1.692 0-3.043.454-4.062 1.366-1.024.905-1.532 2.114-1.532 3.638 0 1.374.448 2.484 1.332 3.327.88.862 2.043 1.291 3.472 1.291 1.454 0 2.875-.574 4.273-1.715l.093 1.354zm-.151-3.096c-1.081.864-2.136 1.294-3.165 1.294-.863 0-1.564-.236-2.106-.723-.54-.487-.813-1.117-.813-1.901 0-.892.34-1.615 1.021-2.17.677-.547 1.574-.82 2.685-.82.7 0 1.492.064 2.378.217v4.103zm-8.838 18.454l-.96-8.791h-.871l-2.226 7.786-2.21-7.786h-.871l-.96 8.79h.698l.784-7.56 2.206 7.56h.73l2.197-7.56.785 7.56h.698zm-1.288-27.626l.308-2.66c-.742 0-1.457.145-2.144.414-.453.185-.94.498-1.488.952v-1.158l-2.748.088v14.632h2.748V25.789a3.913 3.913 0 0 1 2.364-.757c.226 0 .545.033.96.093zm-9.852 5.825c.025-.362.036-.769.036-1.242 0-2.331-.514-4.14-1.537-5.415-1.024-1.274-2.486-1.917-4.377-1.917-1.946 0-3.47.667-4.586 1.989-1.112 1.332-1.665 3.165-1.665 5.48 0 2.492.622 4.432 1.869 5.803 1.246 1.374 2.987 2.064 5.23 2.064 1.514 0 3.036-.273 4.552-.822l-.538-2.054c-1.243.483-2.373.724-3.38.724-2.884 0-4.453-1.54-4.712-4.61h9.108zm-2.653-1.87h-6.67c.067-3.08 1.203-4.614 3.416-4.614 2.166 0 3.254 1.535 3.254 4.615zm-10.364-10.647l.528-2.009c-.884-.186-1.698-.282-2.455-.282-2.868 0-4.306 1.404-4.306 4.225v2.394h-1.805v1.842l1.805.213v12.577h2.716v-12.55l3.474-.24V22.76h-3.474v-2.11c0-1.614.696-2.423 2.087-2.423.332 0 .807.065 1.43.205zm-6.293 34.318L104.4 43.96h-.783l-2.608 8.79h.759l.971-3.444h2.537l.981 3.445h.746zm-1.887-3.968h-2.21l1.092-3.986 1.118 3.986zM95.894 27.12a1.485 1.485 0 0 1-.257-.856c0-1.157.899-1.745 2.702-1.745 1.037 0 2.366.306 3.98.897l.725-2.11c-1.744-.664-3.311-.99-4.674-.99-1.647 0-2.974.378-3.977 1.13-1.003.752-1.506 1.732-1.506 2.942 0 1.074.381 1.966 1.146 2.694.531.514 1.469 1.1 2.805 1.74 1.508.723 2.48 1.254 2.92 1.612.442.342.667.744.667 1.201 0 .572-.284 1.037-.837 1.379-.555.345-1.29.514-2.21.514-1.05 0-2.332-.309-3.86-.936l-.75 2.24c1.775.653 3.422.992 4.941.992 1.711 0 3.08-.399 4.096-1.182 1.014-.78 1.517-1.828 1.517-3.163 0-.837-.215-1.52-.654-2.05-.436-.543-1.205-1.097-2.307-1.685l-1.465-.76-1.133-.57c-.996-.498-1.618-.924-1.869-1.294zm-3.23 25.63h.7V43.96h-.7v8.79zm-2.712.002h.835V43.96h-.722v7.544l-3.907-7.544h-.816v8.79h.692v-7.502l3.918 7.503zm.326-21.801c.02-.362.03-.769.03-1.242 0-2.331-.514-4.14-1.534-5.415-1.024-1.274-2.483-1.917-4.373-1.917-1.952 0-3.479.667-4.595 1.989-1.106 1.332-1.66 3.165-1.66 5.48 0 2.492.62 4.432 1.863 5.803 1.247 1.374 2.99 2.064 5.239 2.064 1.505 0 3.026-.273 4.551-.822l-.54-2.054c-1.242.483-2.375.724-3.385.724-2.876 0-4.447-1.54-4.704-4.61h9.108zm-2.657-1.87H80.95c.062-3.08 1.201-4.614 3.412-4.614 2.175 0 3.26 1.535 3.26 4.615zm-8.844 14.88h-.708v6.21c0 .876.23 1.539.68 1.973.521.489 1.19.736 2.02.736.64 0 1.185-.15 1.656-.449.467-.303.773-.7.911-1.218.09-.314.134-.656.134-1.042v-6.21h-.713v6.21c0 .663-.174 1.182-.521 1.547-.355.366-.842.555-1.467.555-.622 0-1.118-.189-1.468-.555-.347-.365-.524-.884-.524-1.547v-6.21zm18.506 0h-2.056v8.79h1.968c1.104 0 1.901-.357 2.408-1.05.5-.696.752-1.816.752-3.341 0-1.52-.245-2.634-.74-3.338-.493-.708-1.268-1.061-2.332-1.061zm-.117.54c.83 0 1.437.308 1.818.927.378.615.57 1.603.57 2.958 0 1.392-.192 2.376-.57 2.964-.386.581-1.032.863-1.936.863h-1.115V44.5h1.233zm12.813-.54h-2.053v8.79h1.962c1.105 0 1.906-.357 2.412-1.05.502-.696.754-1.816.754-3.341 0-1.52-.244-2.634-.744-3.338-.488-.708-1.267-1.061-2.331-1.061zm-.116.54c.832 0 1.438.308 1.817.927.383.615.57 1.603.57 2.958 0 1.392-.19 2.376-.57 2.964-.38.581-1.027.863-1.932.863h-1.112V44.5h1.227zm8.916-.54h-4.126v8.79h4.201v-.47l-3.492-.153v-3.666h3.144v-.522h-3.144v-3.352l3.417-.137v-.49zm4.676 5.475c.294.26.446.638.446 1.116 0 .507-.18.917-.54 1.24-.354.32-.823.481-1.388.481-.555 0-1.17-.194-1.856-.563l-.265.599c.762.382 1.468.571 2.121.571.775 0 1.418-.232 1.928-.687.512-.454.763-1.029.763-1.72 0-.68-.25-1.23-.749-1.645-.285-.24-.82-.547-1.61-.903-.68-.31-1.13-.583-1.341-.812a1.483 1.483 0 0 1-.396-1.018c0-.487.178-.892.536-1.198.356-.31.829-.46 1.397-.46.407 0 .835.099 1.28.304l.229-.594a4.492 4.492 0 0 0-1.557-.303c-.763 0-1.387.213-1.872.64-.49.413-.729.967-.729 1.637 0 .616.207 1.123.614 1.526.25.257.763.558 1.538.927.697.333 1.177.613 1.45.862zm16.625-6.592l.373.357 1.959-1.317-.59-.624-1.742 1.584zm3.017 1.117h-4.124v8.79h4.196v-.47l-3.49-.153v-3.666h3.141v-.522h-3.142v-3.352l3.419-.137v-.49zm11.273 1.09c-.49.779-.73 1.928-.73 3.411 0 2.96.948 4.435 2.843 4.435.619 0 1.255-.181 1.918-.534l-.18-.56c-.624.353-1.19.522-1.699.522-.778 0-1.344-.397-1.7-1.193-.266-.598-.393-1.467-.393-2.61 0-2.74.688-4.11 2.067-4.11.484 0 1.001.124 1.54.397l.143-.558c-.582-.25-1.147-.378-1.683-.378-.93 0-1.636.394-2.126 1.177zm34.525-1.09h-1.82v8.79h.706v-3.844h.725c.866 0 1.496-.13 1.901-.363.677-.427 1.013-1.142 1.013-2.172 0-.61-.145-1.12-.437-1.534a1.905 1.905 0 0 0-1.186-.784 4.284 4.284 0 0 0-.902-.093zm-.062.558c.625 0 1.073.137 1.341.427.328.317.495.807.495 1.458 0 .743-.2 1.287-.592 1.622-.337.273-.874.41-1.622.41h-.674v-3.917h1.052zm9.811.531c-.488.78-.73 1.93-.73 3.412 0 2.96.944 4.435 2.84 4.435.615 0 1.262-.181 1.924-.534l-.179-.56c-.626.353-1.193.522-1.704.522-.775 0-1.342-.397-1.701-1.193-.262-.598-.39-1.467-.39-2.61 0-2.74.683-4.11 2.062-4.11.493 0 1 .124 1.543.397l.146-.558c-.59-.25-1.149-.378-1.69-.378-.922 0-1.63.394-2.12 1.177zm5.202 7.7h.691V43.96h-.691v8.79zm13.483 0h.699V43.96h-.699v8.79zm5.921-8.249l-4.045 7.684v.567h4.864v-.503l-4.075-.08 4.075-7.668v-.54h-4.578v.475l3.76.065z"/><path fill="#5AB7B2" d="M63.294 16.367C59.098 9.571 54.75 5.524 49.184 3.24 40.902-.16 33.277-.892 26.506 1.081c-1.628.476-3.549 1.05-5.437 1.737-5.372 1.957-9.033 4.313-11.856 7.634-8.265 9.71-11.151 21.727-7.918 32.975.16.682.36 1.305.597 1.9.58 1.652 1.302 3.3 2.136 4.883 1.39 2.645 3.322 4.92 5.253 7.094 4.742 6.17 11.38 9.64 18.806 11.178l.177.045c.147.044.3.083.445.116.888.189 1.823.322 2.774.377h.045c4.746.499 9.512.053 14.134-1.333l.053-.013.044-.024h.007l.044-.012c6.692-2.958 12.6-7.68 15.82-12.624.586-.908 1.226-1.724 1.834-2.509 1.262-1.611 2.446-3.13 3.149-5.27.843-2.575 1.945-6.442 2.388-10.244.83-7.055-2.404-15.274-5.707-20.624M52.015 30.226c.453 1.748.608 3.562.458 5.411l.003.083c.189.954-.17 1.794-.36 2.626-.237 1.073-.412 2.202-1.263 3.344-2.173 4.787-6.129 8.509-10.852 10.224-.506.19-1.025.35-1.544.49-4.254 1.098-8.956.162-13.234-2.64-2.726-1.79-4.6-3.44-5.723-5.051-1.106-1.597-2.978-4.591-3.06-6.698-.685-6.829 1.661-11.286 4.668-15.201 1.475-2.21 3.09-4.083 5.608-5 .223-.08.446-.156.74-.253 1.433-.74 3.338-1.125 5.506-1.15.391.044.82.06 1.32.044 3.01.158 6.038 1.335 8.506 2.099 4.75 1.45 8.086 7.255 9.227 11.672"/></g></svg>