<svg width="70" height="70" fill="none" xmlns="http://www.w3.org/2000/svg"><path fill-rule="evenodd" clip-rule="evenodd" d="M63.294 16.367C59.098 9.571 54.75 5.524 49.184 3.24 40.902-.16 33.277-.892 26.506 1.081c-1.628.476-3.549 1.05-5.437 1.737-5.372 1.957-9.033 4.313-11.856 7.634-8.265 9.71-11.151 21.727-7.918 32.975.16.682.36 1.305.597 1.9.58 1.652 1.302 3.3 2.136 4.883 1.39 2.645 3.322 4.92 5.253 7.094 4.742 6.17 11.38 9.64 18.806 11.178l.177.045c.147.044.3.083.445.116.888.189 1.823.322 2.774.377h.045c4.746.499 9.512.053 14.134-1.333l.053-.013.044-.024h.007l.044-.012c6.692-2.958 12.6-7.68 15.82-12.624.586-.908 1.226-1.724 1.834-2.509 1.262-1.611 2.446-3.13 3.149-5.27.843-2.575 1.945-6.442 2.388-10.244.83-7.055-2.404-15.274-5.707-20.624zM52.015 30.226c.453 1.748.608 3.562.458 5.411l.003.083c.189.954-.17 1.794-.36 2.626-.237 1.073-.412 2.202-1.263 3.344-2.173 4.787-6.129 8.509-10.852 10.224-.506.19-1.025.35-1.544.49-4.254 1.098-8.956.162-13.234-2.64-2.726-1.79-4.6-3.44-5.723-5.051-1.106-1.597-2.978-4.591-3.06-6.698-.685-6.829 1.661-11.286 4.668-15.201 1.475-2.21 3.09-4.083 5.608-5 .223-.08.446-.156.74-.253 1.433-.74 3.338-1.125 5.506-1.15.391.044.82.06 1.32.044 3.01.158 6.038 1.335 8.506 2.099 4.75 1.45 8.086 7.255 9.227 11.672" fill="#5AB7B2"/></svg>
